<svg width="48" height="48" viewBox="0 0 48 48" fill="none" xmlns="http://www.w3.org/2000/svg">
<path d="M14.2575 0C15.7956 0 17.343 0 18.8811 0C19.0698 0.028125 19.2491 0.065625 19.4378 0.084375C21.4665 0.28125 23.5141 0.4125 25.5333 0.675C27.4205 0.91875 29.2699 1.36875 30.9872 2.23125C32.4026 2.94375 33.1952 3.9375 33.1669 5.65312C33.082 10.4344 33.1386 15.2156 33.1386 19.9969C33.1386 20.175 33.1386 20.3625 33.1386 20.5687C33.3273 20.5687 33.4594 20.5687 33.5821 20.5687C35.7523 20.475 37.8376 20.8687 39.8097 21.7687C43.1028 23.2781 45.5184 25.6781 46.896 29.0062C48.519 32.925 48.368 36.825 46.4053 40.5938C44.6031 44.0625 41.7535 46.3594 37.9697 47.4469C37.045 47.7188 36.0637 47.8219 35.1107 48.0094C34.4502 48.0094 33.7897 48.0094 33.1292 48.0094C32.3271 47.8687 31.5156 47.7656 30.7325 47.5687C27.7224 46.8 25.2691 45.1688 23.3348 42.7688C23.1366 42.525 22.9479 42.4125 22.6177 42.4594C22.0892 42.5344 21.5514 42.5719 21.023 42.5719C17.9941 42.5812 14.9558 42.6375 11.9269 42.5437C9.39807 42.4688 6.88815 42.1125 4.44427 41.4281C3.34028 41.1187 2.25516 40.7344 1.32101 40.0406C0.452919 39.3937 0 38.5875 0 37.4812C0.0188716 26.7281 0.0188716 15.9844 0 5.24063C0 4.125 0.434048 3.27188 1.36819 2.7375C2.28347 2.22188 3.25536 1.73438 4.26499 1.425C7.20896 0.496875 10.2662 0.271875 13.3328 0.09375C13.6348 0.075 13.9461 0.028125 14.2575 0ZM45.0749 34.2562C45.0277 28.2281 40.0928 23.3813 34.0822 23.4375C28.0716 23.5031 23.1649 28.425 23.2404 34.3125C23.3159 40.3312 28.2225 45.1594 34.2143 45.1031C40.2343 45.0563 45.1315 40.1625 45.0749 34.2562ZM2.94397 8.16562C2.94397 8.16562 2.9251 8.25 2.9251 8.34375C2.9251 10.6875 2.91567 13.0312 2.93454 15.375C2.93454 15.5531 3.07608 15.8156 3.22705 15.8812C3.84038 16.1812 4.47258 16.4813 5.13308 16.6688C7.59583 17.3625 10.1246 17.6063 12.6723 17.7469C17.2015 18 21.7213 17.9437 26.2033 17.1469C27.4582 16.9219 28.6943 16.6406 29.8077 15.9844C30.1003 15.8156 30.2418 15.6094 30.2418 15.2344C30.2229 13.0031 30.2324 10.7625 30.2324 8.53125C30.2324 8.38125 30.2324 8.23125 30.2324 8.16562C21.1079 10.4812 12.0401 10.4812 2.94397 8.16562ZM2.91567 19.0781C2.91567 21.5812 2.91567 24.1406 2.9251 26.7C2.9251 26.8406 3.04777 27.0375 3.17043 27.0938C3.80263 27.3937 4.44427 27.7219 5.11421 27.9094C7.19953 28.4719 9.33202 28.7344 11.4834 28.9125C14.635 29.1656 17.7959 29.2219 20.9475 29.0156C21.3155 28.9875 21.4948 28.8562 21.6363 28.5375C22.5044 26.6344 23.7688 25.0219 25.4012 23.6813C26.7128 22.6125 28.1659 21.7969 29.7794 21.2625C29.9493 21.2063 30.204 21.0562 30.2135 20.9344C30.2607 20.2875 30.2324 19.6406 30.2324 19.0875C21.0985 21.4031 12.0401 21.4125 2.91567 19.0781ZM20.5323 31.9688C14.55 32.1469 8.66208 32.1 2.91567 30.2531C2.91567 30.45 2.91567 30.6 2.91567 30.7594C2.91567 32.8688 2.93454 34.9781 2.90623 37.0875C2.8968 37.5563 3.0572 37.8469 3.47238 37.9781C4.75565 38.3625 6.02949 38.8312 7.3505 39.0844C10.9172 39.7687 14.5217 39.9094 18.1451 39.8438C19.2302 39.825 20.3153 39.7313 21.457 39.6656C20.3908 37.1437 20.136 34.6125 20.5323 31.9688ZM3.21761 4.82812C3.22705 4.875 3.22705 4.9125 3.23648 4.95938C3.4252 5.0625 3.61392 5.19375 3.81207 5.25C4.88775 5.57812 5.96344 5.95312 7.05799 6.17813C10.1529 6.79688 13.2856 6.95625 16.4372 6.95625C20.1172 6.95625 23.7877 6.76875 27.3827 5.90625C28.2603 5.69063 29.1284 5.44688 29.9398 4.94063C29.7511 4.8375 29.6096 4.75313 29.4681 4.6875C29.2416 4.58437 29.0057 4.49062 28.7698 4.40625C26.7883 3.69375 24.7218 3.40313 22.646 3.20625C19.4 2.8875 16.1541 2.83125 12.8988 3.02812C10.4171 3.16875 7.94496 3.40313 5.53882 4.05C4.76509 4.24688 4.00079 4.55625 3.21761 4.82812Z" fill="#FF8001"/>
<path d="M24.5992 34.2656C24.5709 31.3313 27.3827 28.8844 30.1946 29.4094C31.3552 29.625 32.2894 30.2813 33.0631 31.1156C34.2143 32.3531 35.29 33.6656 36.3939 34.9313C36.6298 35.2031 36.8752 35.475 37.1394 35.7094C37.932 36.4219 38.6868 36.4969 39.4795 35.9531C40.2438 35.4375 40.5551 34.4719 40.2438 33.5906C39.8003 32.3438 38.6774 31.9594 37.4413 32.625C36.526 33.1219 35.724 32.8781 35.2994 31.9781C34.988 31.3125 35.1956 30.6563 35.8844 30.2063C38.1867 28.6688 41.0175 29.2688 42.5084 31.6594C43.584 33.3938 43.6029 35.2031 42.48 36.9188C41.4515 38.5031 39.9324 39.3094 38.0075 39.1688C36.7148 39.075 35.6957 38.3625 34.8465 37.4625C33.7142 36.2531 32.6668 34.9594 31.5817 33.7125C31.308 33.3938 31.025 33.075 30.7041 32.7938C29.9493 32.1188 29.2038 32.0531 28.4301 32.55C27.6564 33.0563 27.3167 34.0219 27.6092 34.8938C28.0149 36.1031 29.1378 36.5719 30.3078 35.9906C30.8079 35.7375 31.308 35.6813 31.7798 36.0094C32.2516 36.3375 32.5253 36.7969 32.4875 37.4063C32.4498 37.9313 32.1384 38.2594 31.7138 38.5125C29.5907 39.7688 27.0053 39.2063 25.5522 37.1531C24.92 36.2719 24.6086 35.3344 24.5992 34.2656Z" fill="#FF8001"/>
</svg>
