<svg width="47" height="48" viewBox="0 0 47 48" fill="none" xmlns="http://www.w3.org/2000/svg">
<g clip-path="url(#clip0_65_365)">
<path d="M25.6289 0C27.6901 0.518771 29.8055 0.846416 31.7853 1.58362C41.386 5.21502 47.8136 14.9898 46.8915 25.802C45.9423 37.1058 38.0773 45.7611 27.3375 47.6451C14.9706 49.8294 2.6578 41.1741 0.406791 28.6962C-1.78998 16.4915 4.80033 4.94198 16.2181 1.17406C17.8996 0.65529 19.6624 0.382253 21.371 0C22.7813 0 24.2187 0 25.6289 0ZM20.9642 8.05461C20.9642 9.11945 20.9371 10.1024 20.9642 11.0853C20.9913 11.686 20.8015 11.959 20.2319 12.2048C18.1708 13.0512 16.7334 14.5256 16.0825 16.6826C14.9977 20.2321 16.4893 23.3993 20.0963 25.2833C21.3439 25.9386 22.6999 26.4573 23.9475 27.1399C25.1137 27.7679 25.4933 28.5051 25.2493 29.4334C25.0323 30.2526 24.1373 30.9079 22.9711 30.7167C21.5337 30.471 20.1235 29.9522 18.7403 29.4608C18.1708 29.2696 17.6826 28.8328 17.086 28.4505C16.5164 30.0614 16.0283 31.5904 15.4316 33.0648C15.1333 33.7747 15.3231 34.157 15.9469 34.4573C17.4928 35.1672 19.0658 35.8771 20.8015 36.6962C20.8015 37.5973 20.8015 38.7713 20.8015 39.9454C22.6457 39.9454 24.3543 39.9454 26.1985 39.9454C26.1985 38.9625 26.2527 38.0068 26.1714 37.0512C26.1171 36.2867 26.4154 35.959 27.0935 35.6314C32.4905 33.2014 33.2227 26.1024 28.4224 22.6348C27.2562 21.7884 25.873 21.2696 24.5712 20.587C23.9204 20.2321 23.1881 19.959 22.6457 19.4949C22.3202 19.2218 22.0219 18.5939 22.1033 18.2116C22.1846 17.8294 22.727 17.4471 23.1339 17.2833C23.5678 17.1195 24.1644 17.0648 24.6255 17.2014C26.1714 17.6655 27.663 18.2116 29.2902 18.785C29.8869 17.1741 30.5378 15.4266 31.27 13.4881C29.8598 12.8874 28.5851 12.2594 27.2291 11.8498C26.5239 11.6314 26.3341 11.3584 26.3612 10.6758C26.4154 9.82935 26.3612 9.01024 26.3612 8.13652C24.517 8.05461 22.8084 8.05461 20.9642 8.05461Z" fill="white"/>
</g>
<defs>
<clipPath id="clip0_65_365">
<rect width="47" height="48" fill="white"/>
</clipPath>
</defs>
</svg>
