<svg width="48" height="48" viewBox="0 0 48 48" fill="none" xmlns="http://www.w3.org/2000/svg">
<path d="M2.38419e-05 22.7569C0.191259 21.6095 0.191259 20.4621 0.382494 19.3147C0.956199 16.8286 1.91237 14.3426 3.25102 12.0478C3.25102 11.8565 3.44225 11.8565 3.63349 11.8565C4.01596 11.6653 4.58967 11.6653 4.97214 11.6653C4.39843 12.0478 3.82473 12.4302 3.25102 12.8127C4.01596 13.3864 4.7809 13.7689 5.73708 13.7689C7.45819 13.7689 9.17931 13.3864 10.7092 13.1952C11.2829 13.1952 11.4741 13.1952 11.6654 13.5776C12.2391 14.725 13.004 15.6812 13.5777 16.8286C13.7689 17.0199 13.7689 17.2111 13.7689 17.5936C13.7689 18.5497 13.7689 19.6972 13.7689 20.6533C13.7689 20.8446 13.7689 21.227 13.9602 21.4183C14.9164 22.7569 15.8725 24.0956 16.8287 25.4342C17.0199 25.8167 17.2112 25.8167 17.5936 25.8167C17.5936 25.4342 17.5936 24.8605 17.5936 24.478C17.5936 24.478 17.5936 24.478 17.7849 24.478C18.1674 25.243 18.5498 26.0079 18.7411 26.5816C18.9323 26.7729 19.1235 26.9641 19.3148 27.1553C20.2709 27.3466 21.4184 27.5378 22.3745 27.9203C22.757 27.9203 22.9482 28.1115 23.1395 28.3027C24.0956 29.0677 24.8606 30.2151 26.1992 30.2151C25.8168 30.98 25.6255 31.5537 25.2431 32.1274C24.6693 33.0836 24.6693 34.0398 25.2431 34.996C26.3905 36.7171 26.7729 38.6294 27.3466 40.5418C27.3466 40.733 27.3466 40.9242 27.3466 41.1155C27.1554 42.0717 26.9642 43.2191 26.5817 44.1752C26.1992 45.3227 26.3905 46.2788 26.5817 47.4262C26.5817 47.6175 26.5817 47.8087 26.5817 48.1912C26.008 48.1912 25.4343 48.3824 24.8606 48.3824C23.9044 48.3824 23.1395 48.3824 22.1833 48.3824C21.9921 48.3824 21.9921 48.3824 21.8008 48.3824C18.5498 48.1912 15.2988 47.235 12.4303 45.7051C5.54584 41.8804 1.33867 36.3346 2.38419e-05 28.6852C-0.191211 27.729 -0.191211 26.7729 -0.382446 25.8167C2.38419e-05 24.478 2.38419e-05 23.7131 2.38419e-05 22.7569Z" fill="white"/>
<path d="M25.6255 0C26.5817 0.191235 27.3466 0.191235 28.3028 0.38247C30.4064 0.76494 32.3187 1.33865 34.2311 2.29482V2.48606C33.6574 2.48606 33.2749 2.48606 32.7012 2.48606C31.5538 1.91235 30.5976 2.10359 29.8327 2.86853C29.4502 3.251 28.8765 3.8247 28.494 4.20717C28.3028 4.39841 28.1116 4.39841 27.9203 4.39841C26.7729 4.58964 25.4343 4.58964 24.2869 4.78088C23.7132 4.78088 23.1395 4.58964 22.3745 4.58964C22.1833 4.58964 21.992 4.58964 21.992 4.78088C21.6096 5.35458 21.4183 5.73705 21.0359 6.31076C20.8446 6.50199 20.6534 6.69323 20.4622 6.69323C19.506 6.69323 18.3586 6.88446 17.4024 6.88446C16.8287 6.88446 16.0638 6.69323 15.49 6.50199C15.1076 6.50199 14.9163 6.31076 14.5339 6.50199C13.7689 7.0757 12.4303 7.26693 11.2829 7.45817C9.37053 7.6494 7.84065 8.03187 6.11953 8.60558C5.9283 8.60558 5.73706 8.60558 5.73706 8.60558C5.73706 8.60558 5.73706 8.60558 5.73706 8.41434C6.502 7.6494 7.26694 6.69323 8.22312 5.92829C11.6653 2.86853 15.6813 1.14741 20.0797 0.38247C20.8446 0.191235 21.6096 0.191235 22.5657 0C23.5219 0 24.4781 0 25.6255 0ZM29.0677 1.91235C28.494 1.52988 28.1116 1.33865 27.7291 1.14741C27.7291 1.14741 27.5379 1.14741 27.3466 1.14741C26.1992 1.91235 24.8606 2.48606 23.5219 3.251C24.0956 3.63347 24.4781 4.01594 25.0518 3.8247C25.6255 3.63347 26.1992 3.8247 26.7729 3.44223C27.7291 3.05976 28.3028 2.48606 29.0677 1.91235ZM21.0359 4.01594C20.8446 3.63347 20.6534 3.251 20.4622 3.05976C20.2709 2.67729 20.0797 2.67729 19.8885 2.86853C19.1235 3.251 18.5498 3.251 17.9761 2.86853C17.4024 3.05976 16.8287 3.44223 16.255 3.8247C16.6375 4.20717 17.2112 4.39841 17.5936 4.58964C17.7849 4.58964 17.7849 4.78088 17.9761 4.58964C18.9323 4.39841 19.8885 4.20717 21.0359 4.01594Z" fill="white"/>
<path d="M29.6414 47.2351C29.8327 46.6614 29.8327 46.2789 30.0239 45.8965C30.0239 45.7052 30.2151 45.7052 30.4064 45.514C31.5538 44.749 32.7012 43.9841 33.8486 43.2192C34.0399 43.0279 34.2311 42.8367 34.2311 42.6455C34.6136 41.8805 34.8048 41.3068 34.996 40.5419C35.1873 40.1594 35.1873 40.1594 35.5697 39.9682C36.3347 39.5857 37.0996 39.3945 37.6733 39.012C37.8646 39.012 38.0558 38.8208 38.0558 38.6295C39.012 36.9084 39.7769 35.3785 40.7331 33.6574C40.5418 33.6574 40.5418 33.4662 40.3506 33.4662C39.9681 33.2749 39.5857 32.8925 39.012 32.7012C37.2908 31.7451 35.761 30.5976 34.6136 29.0678C34.6136 28.8765 34.4223 28.6853 34.2311 28.6853C33.2749 28.4941 32.3187 28.3028 31.5538 28.1116C30.5976 27.9204 29.6414 27.7291 28.6853 27.5379C28.1116 27.5379 27.7291 27.7291 27.1554 27.9204C26.7729 28.1116 26.3904 27.9204 26.1992 27.5379C25.8167 26.7729 25.0518 26.3905 24.2869 26.3905C24.2869 25.8168 24.2869 25.2431 24.2869 24.6694C23.3307 24.4781 22.5657 24.6694 21.992 25.6255C21.8008 24.8606 21.6096 24.2869 21.4183 23.5219C21.992 23.3307 22.5657 22.9482 23.1395 22.757C23.3307 22.757 23.5219 22.757 23.5219 22.757C23.9044 22.9482 24.2869 23.1395 24.8606 23.3307C25.243 23.5219 25.6255 23.5219 26.008 23.5219L26.1992 23.3307C26.3904 21.9921 27.3466 21.2271 27.9203 20.2709C28.8765 18.9323 30.0239 18.1674 31.3626 17.5937C31.5538 17.5937 31.745 17.4024 31.9363 17.4024C32.8924 16.6375 34.0398 16.6375 35.1873 16.8287C35.3785 16.8287 35.3785 16.8287 35.5697 16.8287H35.761C36.1434 16.255 36.3347 15.6813 35.5697 15.2988C35.1873 15.1076 34.996 14.7251 34.8048 14.5339C33.8486 13.5777 32.8924 12.6215 32.51 11.2829C32.3187 10.9004 32.1275 10.9004 31.9363 10.9004C31.1713 10.9004 30.5976 10.7092 30.0239 10.518C29.4502 10.1355 28.494 10.1355 27.7291 10.1355C27.5379 11.0917 27.3466 11.8566 27.3466 12.6215C26.5817 12.4303 25.8167 12.2391 24.8606 12.2391C24.6693 12.2391 24.4781 10.7092 24.6693 10.7092C25.0518 10.518 25.243 10.518 25.6255 10.518C26.3904 10.518 26.5817 10.1355 26.7729 9.37055C26.7729 8.79685 26.9642 8.03191 27.1554 7.4582C27.7291 7.64944 28.3028 7.84067 28.8765 8.22314C29.0677 8.22314 29.0677 8.60561 29.0677 8.79685C29.0677 9.56179 29.0677 9.56179 29.8327 9.94426C30.0239 9.94426 30.2151 10.1355 30.2151 10.1355C30.9801 10.518 31.9363 10.7092 32.7012 9.75302C32.3187 9.37055 31.9363 8.79685 31.5538 8.41438C30.9801 7.84067 30.5976 7.26696 30.0239 6.88449C29.4502 6.50202 29.4502 5.92832 29.6414 5.35461C30.4064 5.54585 31.1713 5.54585 31.745 5.73708C31.9363 5.73708 32.1275 5.92832 32.1275 6.11955C33.4661 7.07573 34.0398 8.22314 34.4223 9.75302C34.6136 10.1355 34.8048 10.518 34.996 10.7092C35.761 11.2829 36.3347 12.0478 37.0996 12.6215C37.4821 12.8128 37.8645 13.004 38.247 13.3865C38.6295 12.8128 38.8207 12.4303 39.2032 11.8566C39.3944 11.6654 39.5857 11.4741 39.7769 11.4741C40.9243 11.4741 41.8805 11.2829 43.0279 11.2829H43.2191C43.4104 11.2829 43.7928 11.0917 43.9841 11.0917C44.1753 11.2829 44.3665 11.4741 44.5578 11.8566C47.2351 16.0638 48.3825 20.6534 48 25.6255C47.6175 31.3626 45.514 36.5259 41.6892 40.7331C38.4383 43.7929 34.4223 46.0877 29.6414 47.2351C29.8327 47.2351 29.8327 47.2351 29.6414 47.2351Z" fill="white"/>
</svg>
